<?xml version="1.0" standalone="no"?>
<!DOCTYPE svg PUBLIC "-//W3C//DTD SVG 20010904//EN"
 "http://www.w3.org/TR/2001/REC-SVG-20010904/DTD/svg10.dtd">
<svg version="1.0" xmlns="http://www.w3.org/2000/svg"
 width="500.000000pt" height="500.000000pt" viewBox="0 0 500.000000 500.000000"
 preserveAspectRatio="xMidYMid meet">

<g transform="translate(0.000000,500.000000) scale(0.100000,-0.100000)"
fill="#000000" stroke="none">
<path d="M860 2340 l0 -160 1663 2 1662 3 3 158 3 157 -1666 0 -1665 0 0 -160z
m350 30 l16 31 11 -46 c6 -26 7 -43 3 -38 -5 4 -10 17 -12 28 -3 18 -6 16 -20
-10 l-16 -30 -7 28 c-9 34 -25 35 -25 2 0 -14 -4 -25 -9 -25 -4 0 -3 21 2 46
l11 47 15 -32 15 -32 16 31z m230 14 c10 -11 11 -23 4 -42 -17 -48 -84 -38
-84 12 0 43 53 63 80 30z m184 7 c3 -4 -6 -6 -19 -3 -33 6 -32 -16 1 -28 16
-7 24 -16 22 -27 -4 -20 -35 -30 -50 -15 -6 6 0 8 16 5 35 -7 36 22 1 31 -24
6 -33 25 -18 39 9 10 41 9 47 -2z m169 2 c-7 -2 -14 -23 -15 -46 l-1 -42 -4
40 c-3 22 -10 43 -16 47 -7 4 1 7 18 7 17 0 24 -3 18 -6z m315 -20 c2 -13 -2
-23 -8 -23 -7 0 -7 -7 1 -22 12 -22 11 -22 -8 -5 -11 9 -22 17 -26 17 -3 0 -8
-8 -10 -17 -3 -10 -5 4 -6 30 -1 47 0 48 27 45 19 -2 28 -9 30 -25z m155 20
c-13 -2 -23 -11 -23 -19 0 -8 10 -15 23 -15 l22 -2 -22 -4 c-13 -2 -23 -11
-23 -18 0 -7 10 -16 23 -18 19 -4 18 -4 -5 -6 -27 -1 -28 1 -28 44 0 43 1 45
28 44 23 -2 24 -2 5 -6z m180 0 c-30 -6 -29 -21 3 -33 16 -7 24 -16 22 -28 -4
-20 -45 -29 -61 -13 -8 8 -3 10 21 5 39 -8 44 11 7 28 -35 16 -34 48 3 47 23
-2 24 -2 5 -6z m180 0 c-7 -2 -14 -23 -15 -46 l-1 -42 -4 40 c-3 22 -10 43
-16 47 -7 4 1 7 18 7 17 0 24 -3 18 -6z m191 -63 c3 -14 3 -19 0 -12 -3 6 -17
12 -30 12 -13 0 -24 -6 -25 -12 0 -8 -2 -9 -5 -2 -2 6 3 28 12 49 l16 39 13
-24 c7 -14 15 -36 19 -50z m159 -8 c17 2 23 12 28 43 l7 40 -2 -39 c-1 -42
-22 -64 -50 -53 -12 5 -16 18 -14 49 l1 43 4 -43 c4 -38 7 -43 26 -40z m211
63 c3 -8 -1 -21 -10 -29 -9 -9 -10 -17 -4 -21 5 -3 10 -12 10 -18 0 -7 -9 -1
-19 12 l-19 25 -5 -25 c-2 -13 -5 -3 -6 24 -1 43 1 47 23 47 13 0 26 -7 30
-15z m180 -55 c3 -14 3 -19 0 -12 -3 6 -17 12 -30 12 -13 0 -24 -6 -25 -12 0
-8 -2 -9 -5 -2 -2 6 3 28 12 49 l16 39 13 -24 c7 -14 15 -36 19 -50z m136 15
l-8 -40 -1 50 c-1 29 3 45 8 40 5 -6 6 -28 1 -50z m50 9 l0 -47 -20 26 c-11
14 -20 29 -20 34 0 4 7 -1 15 -11 14 -19 15 -18 15 12 0 18 2 32 5 32 3 0 5
-21 5 -46z m163 39 c-7 -2 -14 -23 -15 -46 l-1 -42 -4 40 c-3 22 -10 43 -16
47 -7 4 1 7 18 7 17 0 24 -3 18 -6z m160 0 c-30 -6 -29 -21 3 -33 16 -7 24
-16 22 -28 -4 -20 -45 -29 -61 -13 -8 8 -3 10 21 5 39 -8 44 11 7 28 -35 16
-34 48 3 47 23 -2 24 -2 5 -6z"/>
<path d="M1374 2376 c-10 -26 1 -51 22 -54 27 -4 47 21 39 48 -7 24 -53 28
-61 6z"/>
<path d="M2060 2375 c0 -8 9 -15 20 -15 11 0 20 7 20 15 0 8 -9 15 -20 15 -11
0 -20 -7 -20 -15z"/>
<path d="M2776 2365 c-9 -23 -8 -25 9 -25 17 0 19 9 6 28 -7 11 -10 10 -15 -3z"/>
<path d="M3140 2375 c0 -10 7 -15 18 -13 21 4 19 22 -2 26 -10 2 -16 -3 -16
-13z"/>
<path d="M3326 2365 c-9 -23 -8 -25 9 -25 17 0 19 9 6 28 -7 11 -10 10 -15 -3z"/>
</g>
</svg>
